<svg xmlns="http://www.w3.org/2000/svg" viewBox="0 0 460 100"><defs><style>.cls-1{fill:#1d1d1b;}</style></defs><g id="Layer_2" data-name="Layer 2"><g id="Layer_1-2" data-name="Layer 1"><path class="cls-1" d="M80,0V100H30L0,70V0H20V60L40,80H60V0Z"/><path class="cls-1" d="M200,30v70h50l30-30V0H230Zm40,50H220V40l20-20h20V60Z"/><path class="cls-1" d="M350,40V60H320L290,30V0h20V20l20,20Z"/><path class="cls-1" d="M370,0V70l-30,30H290V80h40l20-20V0Z"/><path class="cls-1" d="M460,30v70H440V40L420,20H400v80H380V0h50Z"/><path class="cls-1" d="M190,0V100H170V20l-5,5L150,40V90H130V30l5-5-5-5L120,30,110,40v60H90V30L120,0h20l10,10L160,0Z"/></g></g></svg>